# xmcd
#
# Track frame offsets:
#	150
#	21822
#	35942
#	57009
#	77286
#	97446
#	118472
#	137359
#	152505
#	172057
#	193493
#	212862
#	228359
#	245663
#	267739
#	288231
#	309958
#
# Disc length: 4324 seconds
#
# Revision: 1
# Processed by: cddbd v1.4PL0 Copyright (c) Steve Scherf et al.
# Submitted via: audiograbber 1.81.02
#
DISCID=fe10e211
DTITLE=Whitney Houston - Very Best '99
DYEAR=1999
DGENRE=Pop
TTITLE0=It's Not Right But It's Ok
TTITLE1=Queen Of The Night
TTITLE2=Heartbreak Hotel
TTITLE3=I Will Always Love You
TTITLE4=When You Believe
TTITLE5=Somebody Bigger Than You and I
TTITLE6=I'm Your Baby Tonight
TTITLE7=Exhale (Shoop Shoop)
TTITLE8=Run To You
TTITLE9=I'm Every Woman
TTITLE10=My Love Is Your Love
TTITLE11=In My Business
TTITLE12=I Believe In You And Me
TTITLE13=Greatest Love Of All
TTITLE14=Step By Step
TTITLE15=I Have Nothing
TTITLE16=It's Not Right But It's Ok (Club Mix)
EXTD=
EXTT0=
EXTT1=
EXTT2=
EXTT3=
EXTT4=
EXTT5=
EXTT6=
EXTT7=
EXTT8=
EXTT9=
EXTT10=
EXTT11=
EXTT12=
EXTT13=
EXTT14=
EXTT15=
EXTT16=
PLAYORDER=
